# xmcd
#
# Track frame offsets:
#	150
#	11617
#	26917
#	37406
#	46512
#	58793
#	74853
#	88062
#	98822
#	113511
#	126663
#	135547
#	143549
#	154902
#	170896
#	182011
#	195601
#	207357
#	222208
#	235190
#	248677
#	259525
#	267976
#	278217
#
# Disc length: 3870 seconds
#
# Revision: 0
# Processed by: cddbd v1.5.2PL0 Copyright (c) Steve Scherf et al.
# Submitted via: dBpowerAMP V4.0
#
DISCID=6c0f1c18
DTITLE=Florea Cioaca - Florea Cioaca - vioara
DYEAR=2007
DGENRE=Country
TTITLE0=Mierlita cand e bolnava
TTITLE1=Hora boldenilor
TTITLE2=Invelitul miresei
TTITLE3=Hora lui Buica
TTITLE4=Braul la Isanita
TTITLE5=Dimineata dupa nunta
TTITLE6=Hora lui Pasan
TTITLE7=Sarba din Dragasani
TTITLE8=Hora lui Nita Golea
TTITLE9=Sarba de la Bucovat
TTITLE10=Hora lui Florea Cioaca
TTITLE11=Schioapa
TTITLE12=Cantec din Dealu Mare
TTITLE13=Du-te dor si te revarsa
TTITLE14=Braul lui Piculeata
TTITLE15=Doina lui Florea Cioaca
TTITLE16=Hora batranesca
TTITLE17=Pe deal pe Teleormanel
TTITLE18=Dor de mama , dor de tata
TTITLE19=Ca pe lunca
TTITLE20=Padure draga padure
TTITLE21=Sarba de la Craiova
TTITLE22=Trei pazeste
TTITLE23=Sarba
EXTD=
EXTT0=
EXTT1=
EXTT2=
EXTT3=
EXTT4=
EXTT5=
EXTT6=
EXTT7=
EXTT8=
EXTT9=
EXTT10=
EXTT11=
EXTT12=
EXTT13=
EXTT14=
EXTT15=
EXTT16=
EXTT17=
EXTT18=
EXTT19=
EXTT20=
EXTT21=
EXTT22=
EXTT23=
PLAYORDER=
